<svg width="668" height="668" viewBox="0 0 668 668" fill="none" xmlns="http://www.w3.org/2000/svg">
<g clip-path="url(#clip0_121_2)">
<path d="M667.204 366.711C658.615 451.071 618.302 529.018 554.422 584.778C490.542 640.544 407.862 669.966 323.116 667.09C238.37 664.215 157.876 629.257 97.929 569.287C37.9757 509.314 3.04369 428.807 0.189027 344.061C-2.65991 259.311 26.7824 176.647 82.569 112.781C138.356 48.9208 216.316 8.63014 300.676 0.0674746C305.842 -0.505445 310.702 2.61961 312.322 7.55708C313.941 12.4945 311.874 17.8904 307.374 20.4893C264.062 46.312 229.666 84.74 208.786 130.635C187.906 176.536 181.535 227.713 190.526 277.328C199.521 326.943 223.447 372.631 259.11 408.281C294.771 443.932 340.47 467.844 390.088 476.817C439.708 485.797 490.886 479.411 536.782 458.515C582.672 437.619 621.088 403.208 646.896 359.889C649.553 355.525 654.865 353.572 659.714 355.171C664.563 356.769 667.667 361.499 667.209 366.587L667.204 366.711Z" fill="black"/>
</g>
<defs>
<clipPath id="clip0_121_2">
<rect width="667.25" height="667.28" fill="white"/>
</clipPath>
</defs>
</svg>
