<svg width="672" height="672" viewBox="0 0 672 672" fill="none" xmlns="http://www.w3.org/2000/svg">
<g clip-path="url(#clip0_121_65)">
<path d="M336.201 0.00119165C330.232 0.0636903 324.534 2.51159 320.384 6.80333C316.228 11.0897 313.957 16.8659 314.082 22.8393V124.922C313.998 130.906 316.316 136.682 320.514 140.949C324.717 145.214 330.451 147.615 336.431 147.615C342.416 147.615 348.15 145.214 352.353 140.949C356.55 136.683 358.868 130.907 358.785 124.922V22.8393C358.91 16.7872 356.577 10.9383 352.321 6.63666C348.066 2.32933 342.248 -0.0612084 336.201 0.00119165ZM110.374 89.7305C104.729 90.3347 99.5255 93.0691 95.8171 97.3764C92.1141 101.684 90.1869 107.241 90.4213 112.918C90.6609 118.595 93.0515 123.97 97.1035 127.948L171.604 202.527V202.532C175.666 207.189 181.473 209.954 187.645 210.173C193.817 210.397 199.801 208.048 204.186 203.694C208.571 199.34 210.957 193.36 210.78 187.178C210.608 181.001 207.889 175.167 203.264 171.068L128.764 96.4897V96.4845C123.999 91.5209 117.217 89.0261 110.374 89.7293L110.374 89.7305ZM557.375 89.7305C552.307 90.3972 547.624 92.7827 544.104 96.4857L469.604 171.064V171.07C464.979 175.169 462.26 181.002 462.088 187.179C461.911 193.361 464.296 199.34 468.682 203.695C473.067 208.049 479.052 210.398 485.223 210.174C491.395 209.955 497.202 207.19 501.265 202.533L575.765 127.955V127.95C580.265 123.559 582.707 117.476 582.499 111.19C582.291 104.898 579.447 98.9917 574.666 94.9083C569.884 90.8248 563.609 88.944 557.375 89.7305ZM336.441 186.919C254.414 186.919 187.441 253.965 187.441 336.079C187.441 418.193 254.414 485.239 336.441 485.239C418.468 485.239 485.441 418.192 485.441 336.079C485.441 253.964 418.468 186.919 336.441 186.919ZM336.441 231.435C394.31 231.435 440.972 278.148 440.972 336.08C440.972 394.007 394.305 440.492 336.441 440.492C278.572 440.492 232.138 394.013 232.138 336.08C232.138 278.147 278.57 231.435 336.441 231.435ZM21.2145 313.7C13.2301 314.117 6.07448 318.768 2.44381 325.898C-1.19165 333.028 -0.74366 341.554 3.60526 348.267C7.95939 354.981 15.5583 358.861 23.5426 358.444H125.516H125.511C131.49 358.527 137.256 356.205 141.511 352.001C145.771 347.798 148.167 342.059 148.167 336.075C148.167 330.085 145.771 324.346 141.511 320.143C137.256 315.94 131.49 313.617 125.511 313.7H23.5374H23.5426C22.7666 313.658 21.9905 313.658 21.2145 313.7ZM545.041 313.7C537.057 314.117 529.901 318.768 526.271 325.898C522.64 333.028 523.083 341.554 527.432 348.267C531.786 354.981 539.385 358.861 547.369 358.444H649.343H649.337C655.317 358.527 661.082 356.205 665.337 352.001C669.598 347.798 671.994 342.059 671.994 336.075C671.994 330.085 669.598 324.346 665.337 320.143C661.082 315.94 655.317 313.617 649.337 313.7H547.364H547.369C546.593 313.658 545.817 313.658 545.041 313.7ZM184.881 462.633C179.813 463.3 175.131 465.685 171.61 469.388L97.1103 543.967C92.4853 548.071 89.7666 553.905 89.5895 560.082C89.4177 566.264 91.8031 572.238 96.1885 576.598C100.574 580.952 106.558 583.296 112.73 583.077C118.902 582.858 124.709 580.093 128.771 575.431L203.271 500.852C207.771 496.462 210.214 490.373 210.006 484.087C209.797 477.801 206.953 471.894 202.172 467.811C197.391 463.728 191.116 461.847 184.881 462.633ZM482.881 462.633C477.235 463.237 472.032 465.972 468.324 470.279C464.621 474.581 462.694 480.138 462.928 485.82C463.168 491.497 465.558 496.873 469.61 500.851L544.11 575.43C548.173 580.091 553.98 582.857 560.152 583.076C566.323 583.294 572.308 580.951 576.693 576.596C581.078 572.237 583.464 566.263 583.292 560.08C583.115 553.903 580.396 548.07 575.771 543.966L501.271 469.387C496.505 464.423 489.724 461.929 482.88 462.632L482.881 462.633ZM336.214 524.393C330.287 524.45 324.626 526.867 320.48 531.107C316.329 535.346 314.032 541.065 314.094 546.997V649.309C314.011 655.299 316.329 661.07 320.527 665.336C324.73 669.602 330.464 672.003 336.444 672.003C342.428 672.003 348.163 669.602 352.365 665.336C356.563 661.071 358.881 655.3 358.798 649.309V546.997C358.86 540.982 356.501 535.195 352.251 530.945C348.001 526.69 342.219 524.331 336.214 524.393Z" fill="black"/>
</g>
<defs>
<clipPath id="clip0_121_65">
<rect width="671.99" height="672" fill="white"/>
</clipPath>
</defs>
</svg>
